# xmcd CD database file
#
# Track frame offsets:
#	150
#	13243
#	27051
#	41456
#	59589
#	76308
#	92533
#
# Disc length: 1438 seconds
#
# Revision: 0
# Processed by: cddbd v1.5.2PL0 Copyright (c) Steve Scherf et al.
# Submitted via: CDex 1.51
#
DISCID=4b059c07
DTITLE=Kaitlyn Baker - Blackbird
DYEAR=2018
DGENRE=Country
TTITLE0=Blackbird
TTITLE1=Getaway
TTITLE2=I Will
TTITLE3=Sassy Frass Tea
TTITLE4=He's My Addiction
TTITLE5=Running Out Of TIme
TTITLE6=Heart Of Appalachia
EXTD=YEAR: 2018
EXTT0=
EXTT1=
EXTT2=
EXTT3=
EXTT4=
EXTT5=
EXTT6=
PLAYORDER=
